<svg xmlns="http://www.w3.org/2000/svg" version="1.1" xmlns:xlink="http://www.w3.org/1999/xlink" xmlns:svgjs="http://svgjs.dev/svgjs" width="2000" height="1500" viewBox="0 0 2000 1500"><rect width="2000" height="1500" fill="#000000"></rect><g transform="matrix(0.75,0,0,0.75,249.090909090909,632.2662758757386)"><svg viewBox="0 0 396 62" data-background-color="#162836" preserveAspectRatio="xMidYMid meet" height="313" width="2000" xmlns="http://www.w3.org/2000/svg" xmlns:xlink="http://www.w3.org/1999/xlink"><g id="tight-bounds" transform="matrix(1,0,0,1,0.2400000000000091,0.0947428996984172)"><svg viewBox="0 0 395.52 61.81051420060317" height="61.81051420060317" width="395.52"><g><svg viewBox="0 0 563.7447285895571 88.1001" height="61.81051420060317" width="395.52"><g><svg viewBox="0 0 563.7447285895571 88.1001" height="88.1001" width="563.7447285895571"><g id="textblocktransform"><svg viewBox="0 0 563.7447285895571 88.1001" height="88.1001" width="563.7447285895571" id="textblock"><g><svg viewBox="0 0 563.7447285895571 88.1001" height="88.1001" width="563.7447285895571"><g><svg><g></g><g></g></svg></g><g><svg><g><svg></svg></g><g></g></svg></g><g id="text-0"><svg viewBox="0 0 563.7447285895571 88.1001" height="88.1001" width="563.7447285895571"><g transform="matrix(1,0,0,1,0,16.825049999999997)"><svg width="281.07500000000005" viewBox="2.1499999999999995 -40.8 281.05499999999995 54.449999999999996" height="54.45" data-palette-color="#5f27cd"><path d="M12-21.85L31.7-21.85 31.7-37.6 27.65-38.1Q27.45-38.85 27.65-39.95L27.65-39.95Q30.4-39.75 34.5-39.75L34.5-39.75Q38.2-39.75 41.4-39.9L41.4-39.9Q41.7-39 41.4-38.1L41.4-38.1 37.25-37.5Q37.05-35.6 37.05-31.65L37.05-31.65 37.05-2.2 41.1-1.7Q41.3-0.95 41.1 0.15L41.1 0.15Q37.95 0 34.25 0L34.25 0Q31.55 0 27.35 0.1L27.35 0.1Q27.05-0.8 27.35-1.7L27.35-1.7 31.5-2.3Q31.7-4.2 31.7-8.15L31.7-8.15 31.7-19.35 12-19.35 12-2.2 16.05-1.7Q16.25-0.95 16.05 0.15L16.05 0.15Q12.9 0 9.2 0L9.2 0Q6.5 0 2.3 0.1L2.3 0.1Q2-0.8 2.3-1.7L2.3-1.7 6.45-2.3Q6.65-4.2 6.65-8.15L6.65-8.15 6.65-37.6 2.6-38.1Q2.4-38.85 2.6-39.95L2.6-39.95Q5.35-39.75 9.45-39.75L9.45-39.75Q13.1-39.75 16.35-39.9L16.35-39.9Q16.65-39 16.35-38.1L16.35-38.1 12.2-37.5Q12-35.6 12-31.65L12-31.65 12-21.85ZM65.8-14.1L65.8-14.1 50.1-14.1Q49.65-1.35 57.75-1.35L57.75-1.35Q61.2-1.35 64.8-4.4L64.8-4.4Q65.55-3.95 65.95-2.85L65.95-2.85Q62.5 1 57.2 1L57.2 1Q45 1 45-13.35L45-13.35Q45-20.15 48.6-23.93 52.2-27.7 57-27.7L57-27.7Q62.25-27.7 64.55-24.05 66.85-20.4 66.85-14.55L66.85-14.55Q66.35-14.15 65.8-14.1ZM56.9-25.7L56.9-25.7Q54.3-25.7 52.47-23 50.65-20.3 50.25-16.1L50.25-16.1 56.45-16.1Q60.15-16.1 61.75-16.55L61.75-16.55Q61.75-20.65 60.5-23.18 59.25-25.7 56.9-25.7ZM78.84-31.7L78.84-31.7 78.84-2.55 82.9-1.8Q83.09-1 82.9 0.2L82.9 0.2Q79.75 0.05 76.45 0.05L76.45 0.05Q74.15 0.05 69.95 0.15L69.95 0.15Q69.65-0.8 69.95-1.8L69.95-1.8 73.9-2.35Q74.09-5.1 74.09-8.7L74.09-8.7 74.09-37.35 70-37.85Q69.8-38.6 70-39.75L70-39.75Q73.45-40 78.59-40.8L78.59-40.8Q79.05-40.3 79.09-39.8L79.09-39.8Q78.84-38.5 78.84-31.7ZM100.84-1.7L100.84-1.7Q104.14-1.7 106.07-4.9 107.99-8.1 107.99-14.55L107.99-14.55Q107.99-19.5 106.17-22.1 104.34-24.7 101.34-24.7L101.34-24.7Q96.94-24.7 93.74-20.45L93.74-20.45 93.74-4.9Q96.54-1.7 100.84-1.7ZM88.99 4.75L88.99-19.55Q88.99-22.9 88.84-24.25L88.84-24.25 84.89-24.75Q84.74-25.55 84.89-26.65L84.89-26.65Q88.39-26.9 93.49-27.7L93.49-27.7Q93.94-27.25 93.99-26.7L93.99-26.7Q93.74-24.95 93.74-23L93.74-23Q97.79-27.7 103.04-27.7L103.04-27.7Q107.44-27.7 110.37-24.05 113.29-20.4 113.29-14.4L113.29-14.4Q113.29-7.45 109.47-3.23 105.64 1 100.44 1L100.44 1Q96.79 1 93.74-1.35L93.74-1.35 93.74 10.9 98.79 11.65Q98.99 12.45 98.79 13.65L98.79 13.65Q95.64 13.5 91.84 13.5L91.84 13.5Q89.04 13.5 84.84 13.6L84.84 13.6Q84.54 12.6 84.84 11.65L84.84 11.65 88.79 11.1Q88.99 8.35 88.99 4.75L88.99 4.75ZM126.59-1.2L126.59-1.2Q129.29-1.2 130.59-2.45 131.89-3.7 131.89-5.35L131.89-5.35Q131.89-6.3 131.59-7.1 131.29-7.9 130.62-8.65 129.94-9.4 128.84-10.13 127.74-10.85 126.09-11.7L126.09-11.7Q124.04-12.75 122.57-13.7 121.09-14.65 120.14-15.7 119.19-16.75 118.72-17.95 118.24-19.15 118.24-20.65L118.24-20.65Q118.24-22.45 118.89-23.78 119.54-25.1 120.72-25.98 121.89-26.85 123.49-27.28 125.09-27.7 127.04-27.7L127.04-27.7Q130.94-27.7 134.64-25.8L134.64-25.8 134.64-19.4 132.29-19.4 131.19-24.8Q128.99-25.85 126.54-25.85L126.54-25.85Q122.44-25.85 122.44-22.5L122.44-22.5Q122.44-20.7 123.79-19.2 125.14-17.7 128.14-16.2L128.14-16.2Q130.19-15.15 131.74-14.2 133.29-13.25 134.31-12.2 135.34-11.15 135.87-9.93 136.39-8.7 136.39-7.15L136.39-7.15Q136.39-5.4 135.64-3.9 134.89-2.4 133.54-1.33 132.19-0.25 130.29 0.38 128.39 1 126.09 1L126.09 1Q121.64 1 117.74-0.9L117.74-0.9 117.74-7.3 120.09-7.3 121.19-2.35Q123.74-1.2 126.59-1.2ZM162.79-21.85L182.49-21.85 182.49-37.6 178.44-38.1Q178.24-38.85 178.44-39.95L178.44-39.95Q181.19-39.75 185.29-39.75L185.29-39.75Q188.99-39.75 192.19-39.9L192.19-39.9Q192.49-39 192.19-38.1L192.19-38.1 188.04-37.5Q187.84-35.6 187.84-31.65L187.84-31.65 187.84-2.2 191.89-1.7Q192.09-0.95 191.89 0.15L191.89 0.15Q188.74 0 185.04 0L185.04 0Q182.34 0 178.14 0.1L178.14 0.1Q177.84-0.8 178.14-1.7L178.14-1.7 182.29-2.3Q182.49-4.2 182.49-8.15L182.49-8.15 182.49-19.35 162.79-19.35 162.79-2.2 166.84-1.7Q167.04-0.95 166.84 0.15L166.84 0.15Q163.69 0 159.99 0L159.99 0Q157.29 0 153.09 0.1L153.09 0.1Q152.79-0.8 153.09-1.7L153.09-1.7 157.24-2.3Q157.44-4.2 157.44-8.15L157.44-8.15 157.44-37.6 153.39-38.1Q153.19-38.85 153.39-39.95L153.39-39.95Q156.14-39.75 160.24-39.75L160.24-39.75Q163.89-39.75 167.14-39.9L167.14-39.9Q167.44-39 167.14-38.1L167.14-38.1 162.99-37.5Q162.79-35.6 162.79-31.65L162.79-31.65 162.79-21.85ZM200.93-6.65L200.93-6.65Q200.93-4.05 201.88-2.98 202.83-1.9 204.88-1.9L204.88-1.9Q206.38-1.9 208.21-2.83 210.03-3.75 211.58-5.5L211.58-5.5 211.58-13.3Q206.43-13 203.68-11.48 200.93-9.95 200.93-6.65ZM211.58-15.1L211.58-15.1 211.58-17.65Q211.58-21.9 210.61-23.83 209.63-25.75 207.38-25.75L207.38-25.75Q205.08-25.75 203.68-24.28 202.28-22.8 201.78-19.25L201.78-19.25Q200.18-18.9 199.43-18.9L199.43-18.9Q197.48-18.9 197.13-20.3L197.13-20.3Q197.13-23.7 200.08-25.7 203.03-27.7 207.43-27.7L207.43-27.7Q212.28-27.7 214.31-25.73 216.33-23.75 216.33-18.65L216.33-18.65 216.33-4.55Q216.33-3.3 216.48-2.4L216.48-2.4 220.43-1.9Q220.63-1.15 220.43 0L220.43 0Q216.88 0.15 212.88 0.7L212.88 0.7Q212.48 0.3 212.38-0.3L212.38-0.3 212.13-3.75Q207.98 1 202.88 1L202.88 1Q199.73 1 197.96-0.8 196.18-2.6 196.18-5.65L196.18-5.65Q196.18-10.25 200.36-12.6 204.53-14.95 211.58-15.1ZM243.18-8.7L243.18-17.85Q243.18-21.7 242.16-23.25 241.13-24.8 238.73-24.8L238.73-24.8Q235.03-24.8 231.28-19.25L231.28-19.25 231.28-2.55 235.33-1.8Q235.53-1 235.33 0.2L235.33 0.2Q232.18 0.05 228.88 0.05L228.88 0.05Q226.58 0.05 222.38 0.15L222.38 0.15Q222.08-0.8 222.38-1.8L222.38-1.8 226.33-2.35Q226.53-5.1 226.53-8.7L226.53-8.7 226.53-22.4Q226.53-23.4 226.38-24.25L226.38-24.25 222.43-24.75Q222.23-25.5 222.43-26.65L222.43-26.65Q225.88-26.9 231.03-27.7L231.03-27.7Q231.48-27.2 231.53-26.7L231.53-26.7Q231.28-25.4 231.28-22.25L231.28-22.25Q235.23-27.7 240.18-27.7L240.18-27.7Q247.93-27.7 247.93-20.35L247.93-20.35 247.93-2.55 251.98-1.8Q252.18-1 251.98 0.2L251.98 0.2Q248.83 0.05 245.53 0.05L245.53 0.05Q243.23 0.05 239.03 0.15L239.03 0.15Q238.73-0.8 239.03-1.8L239.03-1.8 242.98-2.35Q243.18-5.1 243.18-8.7L243.18-8.7ZM279.03-31.7L279.03-7.1Q279.03-3.75 279.18-2.4L279.18-2.4 283.13-1.9Q283.28-1.1 283.13 0L283.13 0Q279.48 0.15 275.53 0.7L275.53 0.7Q275.18 0.35 275.03-0.25L275.03-0.25 274.78-3.45Q273.03-1.4 270.43-0.18 267.83 1.05 264.98 1.05L264.98 1.05Q260.63 1.05 257.78-2.58 254.93-6.2 254.93-12.25L254.93-12.25Q254.93-19.25 258.65-23.48 262.38-27.7 267.58-27.7L267.58-27.7Q271.68-27.7 274.28-25.75L274.28-25.75 274.28-32.45Q274.28-35.75 274.13-37.35L274.13-37.35 270.18-37.85Q269.98-38.6 270.18-39.75L270.18-39.75Q273.63-40 278.78-40.8L278.78-40.8Q279.23-40.3 279.28-39.8L279.28-39.8Q279.03-38.5 279.03-31.7L279.03-31.7ZM267.18-25L267.18-25Q263.93-25 261.98-21.58 260.03-18.15 260.03-12.1L260.03-12.1Q260.03-7.15 261.85-4.55 263.68-1.95 266.68-1.95L266.68-1.95Q268.48-1.95 270.63-3.08 272.78-4.2 274.28-6.2L274.28-6.2 274.28-22.2Q271.83-25 267.18-25Z" opacity="1" transform="matrix(1,0,0,1,0,0)" fill="#ffffff" class="undefined-tk-0" data-fill-palette-color="primary"></path></svg></g><g><svg xmlns="http://www.w3.org/2000/svg" xmlns:xlink="http://www.w3.org/1999/xlink" xml:space="preserve" version="1.1" shape-rendering="geometricPrecision" text-rendering="geometricPrecision" image-rendering="optimizeQuality" fill-rule="evenodd" clip-rule="evenodd" viewBox="1734629.1685074412 500205.6838182448 1530867.8314925588 3999700.316181755" x="301.8749" y="0" height="88.1001" width="33.71992858955706" class="icon-dxe-0" data-fill-palette-color="accent" id="dxe-0"><g fill="#d5a187" data-fill-palette-color="accent"><path fill="#ffffff" fill-rule="nonzero" d="M1743244 1768875C1682415 1708164 1957148 1545521 2145304 1708164V828688C2145304 694746 2301096 615256 2409288 698998 2409288 428045 2737409 442691 2737409 690494 2845720 606515 3001512 685888 3001512 820183V878886C3109704 795143 3265497 874161 3265497 1008693V1749031H3265378C3265378 1955967 3265378 2155225 3111122 2318105 3048994 2957101 3080766 3474676 3117382 4070561L3138052 4418525C3139115 4461518 3102381 4497779 3053954 4499906V4499787L2424053 4499669V4499787C2378106 4499787 2341845 4462581 2340192 4416871 2330506 4153477 2357673 3831617 2384130 3518379 2429132 2985803 2471889 2478503 2332160 2357673 2140697 2161249 1937305 1963054 1743244 1768875M1952069 1701786C1903406 1701786 1854743 1717023 1813994 1747496 1906241 1839743 2330152 2281725 2398068 2326372 2501535 2383776 2681423 2420746 2798238 2397950 2838633 2390154 2854696 2451337 2810522 2461967 2700085 2488425 2550317 2462794 2444723 2420864 2523623 2640792 2487126 3073443 2449093 3523694 2422753 3835869 2395705 4156548 2405154 4414627L2424053 4434588 3053954 4434825V4434707L3072853 4417698C3066356 4301120 3059270 4186313 3052419 4074341 3015449 3472787 2983322 2950605 3047458 2301332 3047931 2293891 3051002 2286568 3056671 2280899 3200416 2135264 3200416 1945809 3200416 1749031H3200298V1008693C3200298 879949 3002693 877941 3002693 1008693V1526977C3002693 1570089 2936195 1570089 2936195 1526977V820183C2936195 690494 2738708 690376 2738708 820183V1526977C2738708 1570089 2672092 1570089 2672092 1526977V666281C2672092 535411 2474605 537064 2474605 666281V1526977C2474605 1570089 2407989 1570089 2407989 1526977V828688C2407989 699943 2210503 698053 2210503 828688V1742299C2210503 1781867 2223613 1784584 2260111 1819900 2480866 1787891 2615161 1851082 2688037 2068648 2701739 2109279 2639965 2129949 2626382 2089318 2517835 1764859 2272513 1922541 2226330 1877776 2147075 1801002 2071364 1701786 1952069 1701786" data-fill-palette-color="accent"></path></g></svg></g><g transform="matrix(1,0,0,1,356.3947285895571,16.82505)"><svg width="207.35" viewBox="2.0999999999999996 -40.8 207.33999999999997 43" height="43" data-palette-color="#cf7650"><path d="M34.85-13.4L34.85-13.4 34.85-31.5Q34.85-35.45 34.65-37.35L34.65-37.35 30-37.95Q29.7-38.85 30-39.75L30-39.75Q33.15-39.6 36.1-39.6L36.1-39.6Q39.35-39.6 42.15-39.8L42.15-39.8Q42.35-38.7 42.15-37.95L42.15-37.95 37.6-37.45 37.6 0 34.95 0 12.9-29.85Q11.35-31.9 9.25-35.2L9.25-35.2Q9.5-32.9 9.5-29.65L9.5-29.65 9.5-8.15Q9.5-4.2 9.7-2.3L9.7-2.3 14.35-1.7Q14.65-0.8 14.35 0.1L14.35 0.1Q10.05 0 8.25 0L8.25 0Q5.3 0 2.2 0.15L2.2 0.15Q2-0.95 2.2-1.7L2.2-1.7 6.75-2.2 6.75-31.65Q6.75-35.6 6.55-37.5L6.55-37.5 2.4-38.1Q2.1-38.95 2.4-39.8L2.4-39.8 12.2-39.8 32.25-12.5Q32.65-11.95 33.13-11.2 33.6-10.45 34.18-9.4 34.75-8.35 35.1-7.8L35.1-7.8Q34.85-10.8 34.85-13.4ZM65.95-14.1L65.95-14.1 50.25-14.1Q49.8-1.35 57.9-1.35L57.9-1.35Q61.35-1.35 64.95-4.4L64.95-4.4Q65.7-3.95 66.1-2.85L66.1-2.85Q62.65 1 57.35 1L57.35 1Q45.15 1 45.15-13.35L45.15-13.35Q45.15-20.15 48.75-23.93 52.35-27.7 57.15-27.7L57.15-27.7Q62.4-27.7 64.7-24.05 67-20.4 67-14.55L67-14.55Q66.5-14.15 65.95-14.1ZM57.05-25.7L57.05-25.7Q54.45-25.7 52.62-23 50.8-20.3 50.4-16.1L50.4-16.1 56.6-16.1Q60.3-16.1 61.9-16.55L61.9-16.55Q61.9-20.65 60.65-23.18 59.4-25.7 57.05-25.7ZM78.65-32.7L78.65-32.7 78.65-25.55 85.7-25.55Q85.8-24.95 85.8-24.65L85.8-24.65Q85.8-24.2 85.7-23.6L85.7-23.6 78.65-22.55 78.65-8.8Q78.65-5.1 79.32-3.58 80-2.05 81.45-2.05L81.45-2.05Q82.75-2.05 85.5-3.1L85.5-3.1Q86-2.65 86.2-1.4L86.2-1.4Q84.7-0.5 83.92-0.08 83.15 0.35 81.97 0.68 80.8 1 79.5 1L79.5 1Q77 1 75.42-0.93 73.85-2.85 73.85-6.8L73.85-6.8 73.85-23.15 70.35-23.6Q70.25-24.1 70.25-24.45L70.25-24.45Q70.25-24.85 70.35-25.55L70.35-25.55Q71.75-25.8 72.77-26.43 73.8-27.05 74.5-28.18 75.2-29.3 75.57-30.18 75.95-31.05 76.5-32.7L76.5-32.7Q76.95-32.85 77.6-32.85L77.6-32.85Q78.2-32.85 78.65-32.7ZM125.19-24.3L115.04 2.2 113.99 2.2 107.39-16.15 100.54 2.2 99.49 2.2 89.89-24.25 86.74-24.85Q86.54-25.65 86.74-26.85L86.74-26.85Q89.49-26.65 92.69-26.65L92.69-26.65Q95.54-26.65 98.74-26.8L98.74-26.8Q99.04-25.8 98.74-24.85L98.74-24.85 94.89-24.25 98.89-12.9Q100.64-7.9 101.19-5.65L101.19-5.65 101.29-5.65Q102.49-9.95 103.64-12.65L103.64-12.65 106.19-19.5 104.49-24.25 101.34-24.85Q101.14-25.65 101.34-26.85L101.34-26.85Q104.09-26.65 107.29-26.65L107.29-26.65Q110.14-26.65 113.34-26.8L113.34-26.8Q113.64-25.8 113.34-24.85L113.34-24.85 109.49-24.25 113.34-12.9Q115.09-7.9 115.64-5.65L115.64-5.65 115.74-5.65Q116.94-9.95 118.09-12.65L118.09-12.65 122.44-24.45 118.54-24.85Q118.34-25.65 118.54-26.85L118.54-26.85Q121.29-26.65 123.69-26.65L123.69-26.65Q125.74-26.65 128.94-26.8L128.94-26.8Q129.24-25.8 128.94-24.85L128.94-24.85 125.19-24.3ZM130.29-13.3L130.29-13.3Q130.29-16.3 131.17-18.93 132.04-21.55 133.69-23.5 135.34-25.45 137.67-26.58 139.99-27.7 142.89-27.7L142.89-27.7Q145.74-27.7 148.09-26.58 150.44-25.45 152.12-23.5 153.79-21.55 154.69-18.93 155.59-16.3 155.59-13.3L155.59-13.3Q155.59-10.2 154.67-7.6 153.74-5 152.07-3.08 150.39-1.15 148.04-0.08 145.69 1 142.89 1L142.89 1Q139.94 1 137.62-0.05 135.29-1.1 133.67-3 132.04-4.9 131.17-7.53 130.29-10.15 130.29-13.3ZM137.59-22.5L137.59-22.5Q135.44-19.45 135.44-13.3L135.44-13.3Q135.44-10.25 136.02-7.95 136.59-5.65 137.59-4.13 138.59-2.6 139.94-1.85 141.29-1.1 142.89-1.1L142.89-1.1Q144.44-1.1 145.84-1.85 147.24-2.6 148.24-4.13 149.24-5.65 149.84-7.95 150.44-10.25 150.44-13.3L150.44-13.3Q150.44-16.35 149.84-18.68 149.24-21 148.22-22.53 147.19-24.05 145.82-24.83 144.44-25.6 142.89-25.6L142.89-25.6Q139.79-25.6 137.59-22.5ZM168.39-26.7L168.39-26.7 168.29-21.55Q169.54-23.85 171.76-25.78 173.99-27.7 175.99-27.7L175.99-27.7Q177.54-27.7 178.74-27.35L178.74-27.35Q179.14-26.7 179.14-25.65L179.14-25.65Q179.14-24 178.44-22.35L178.44-22.35Q176.64-22.85 174.99-22.85L174.99-22.85Q170.89-22.85 168.24-18.85L168.24-18.85 168.14-10.1 168.14-2.55 173.69-1.8Q173.89-1 173.69 0.2L173.69 0.2Q170.54 0.05 166.49 0.05L166.49 0.05Q163.44 0.05 159.24 0.15L159.24 0.15Q158.94-0.8 159.24-1.8L159.24-1.8 163.19-2.35Q163.39-5.1 163.39-8.7L163.39-8.7 163.39-22.4Q163.39-23.4 163.24-24.25L163.24-24.25 159.29-24.75Q159.09-25.5 159.29-26.65L159.29-26.65Q162.74-26.9 167.89-27.7L167.89-27.7Q168.34-27.2 168.39-26.7ZM199.99-2.3L189.84-14.4 200.29-24.5 196.99-24.9Q196.79-25.7 196.99-26.85L196.99-26.85Q199.74-26.65 202.14-26.65L202.14-26.65Q204.09-26.65 207.34-26.8L207.34-26.8Q207.64-25.9 207.34-24.9L207.34-24.9 203.39-24.2 194.54-15.9 205.44-2.85 209.34-1.85Q209.54-1.05 209.34 0.15L209.34 0.15Q206.19 0 203.04 0L203.04 0Q200.89 0 196.69 0.1L196.69 0.1Q196.39-0.9 196.69-1.85L196.69-1.85 199.99-2.3ZM189.29-31.7L189.29-31.7 189.29-2.55 193.34-1.8Q193.54-1 193.34 0.2L193.34 0.2Q190.19 0.05 186.94 0.05L186.94 0.05Q184.64 0.05 180.44 0.15L180.44 0.15Q180.14-0.8 180.44-1.8L180.44-1.8 184.39-2.35Q184.59-5.1 184.59-8.7L184.59-8.7 184.59-37.35 180.49-37.85Q180.29-38.6 180.49-39.75L180.49-39.75Q183.84-40 189.04-40.8L189.04-40.8Q189.49-40.3 189.54-39.8L189.54-39.8Q189.29-38.5 189.29-31.7Z" opacity="1" transform="matrix(1,0,0,1,0,0)" fill="#ffffff" class="undefined-tk-1" data-fill-palette-color="secondary"></path></svg></g></svg></g></svg></g></svg></g></svg></g><g></g></svg></g><defs></defs></svg><rect width="395.52" height="61.81051420060317" fill="none" stroke="none" visibility="hidden"></rect></g></svg></g></svg>